<?xml version="1.0" encoding="UTF-8"?><svg id="Layer_2" xmlns="http://www.w3.org/2000/svg" viewBox="0 0 40.42 36.06"><defs><style>.cls-1{fill:#1238c2;stroke-width:0px;}</style></defs><g id="Layer_2-2"><path class="cls-1" d="M40.41,9.9c-.04-1.46-1.23-2.63-2.69-2.63h-10.82v5.4h8.1v10.72h-9.76c-.31,0-.6.06-.87.16v-.16h-5.42v12.67h5.42v-7.43c.27.09.56.16.87.16h12.48c1.49,0,2.7-1.21,2.7-2.7,0-.12-.02-.23-.04-.35h.04v-15.84h0Z"/><polygon class="cls-1" points="32.34 15.33 24.37 15.33 24.37 0 18.95 0 18.95 15.33 18.95 16.12 18.95 20.73 32.34 20.73 32.34 15.33"/><path class="cls-1" d="M0,10.46v.2h0v14.47h0v.47C0,27.36,1.43,28.79,3.19,28.79h12.85v-5.4H5.42v-2.66h10.62v-5.4H5.42v-2.66h10.62v-5.4H3.19C1.43,7.27,0,8.7,0,10.46Z"/></g></svg>