<?xml version="1.0" encoding="UTF-8"?><svg id="Layer_2" xmlns="http://www.w3.org/2000/svg" viewBox="0 0 27.31 32.16"><defs><style>.cls-1{fill:#c4a800;}.cls-1,.cls-2{stroke-width:0px;}.cls-2{fill:#1238c4;}</style></defs><g id="Layer_1-2"><rect class="cls-2" x="0" y="9.67" width="5.79" height="21.38"/><polygon class="cls-2" points="19.01 26.43 14.39 26.43 14.39 9.89 19.01 13.86 19.01 26.43"/><path class="cls-2" d="M.99,8.57h11.89l1.51,1.32v4.21H.99C.44,14.1,0,13.66,0,13.11v-3.55C0,9.02.44,8.57.99,8.57Z"/><path class="cls-2" d="M17.49,21.86h9.45v3.57c0,.55-.45,1-1,1h-7.45c-.55,0-1-.45-1-1v-3.57h0Z" transform="translate(44.43 48.29) rotate(180)"/><rect class="cls-2" y="17.69" width="11.58" height="5.38" rx="1" ry="1" transform="translate(11.58 40.77) rotate(180)"/><rect class="cls-2" x="0" y="26.43" width="14.39" height="5.73" transform="translate(14.39 58.59) rotate(180)"/><path class="cls-1" d="M26.98,14.77l-1.76,2.07c-.3.35-.83.4-1.18.1L12.03,6.76c-.44-.37-.49-1.03-.12-1.47l2.3-2.72,2.37,2.01-1.2,2.76,4.15,4.49,3.13-2.09,4.19,3.55c.44.37.49,1.03.12,1.47Z"/><path class="cls-1" d="M14.17,2.63c-1.67,1.96-.89,3.07-.24,5.37l6.92,5.43c2.2.08,3.17.65,4.7-1.16,2.66-3.14,2.28-7.85-.86-10.51s-7.85-2.28-10.51.86ZM22.18,9.13l-4.47-3.79c.95-1.12,2.72-1.18,3.95-.13s1.47,2.8.52,3.92Z"/></g></svg>