<?xml version="1.0" encoding="UTF-8"?><svg id="Layer_2" xmlns="http://www.w3.org/2000/svg" viewBox="0 0 86 82.59"><defs><style>.cls-1{fill:#f2c330;}.cls-1,.cls-2{stroke-width:0px;}.cls-2{fill:#1238c4;}</style></defs><g id="Layer_1-2"><path class="cls-1" d="M52.89,80.59c0,1.1-.9,2-2,2H2c-1.1,0-2-.9-2-2V2.07C0,.97.9.07,2,.07h14.33c1.1,0,2,.9,2,2v61.95c0,1.1.9,2,2,2l32.52.22.05,14.35Z"/><path class="cls-2" d="M52.87,49.51l-15.32.04c-1.1,0-2-.9-2-2v-12.51c0-1.1.9-2,2-2h13.34c1.1,0,2,.9,2,2l-.02,14.48Z"/><path class="cls-2" d="M52.89,0h0s-15.34,0-15.34,0c-1.1,0-2,.9-2,2v12.69c0,1.1.9,2,2,2h15.38c9.05.02,16.38,7.36,16.38,16.41s-7.35,16.41-16.41,16.41v16.69c18.28,0,33.11-14.82,33.11-33.11S71.18,0,52.89,0Z"/></g></svg>